<svg xmlns="http://www.w3.org/2000/svg" viewBox="0 0 640 480"><path fill="#fff" d="M0 0h640v480H0z"/><g fill="#b22234"><path d="M0 0h640v37H0zm0 74h640v37H0zm0 74h640v37H0zm0 74h640v37H0zm0 74h640v37H0zm0 74h640v37H0zm0 74h640v36H0z"/></g><path fill="#3c3b6e" d="M0 0h296v259H0z"/><g fill="#fff"><circle cx="30" cy="28" r="7"/><circle cx="75" cy="28" r="7"/><circle cx="120" cy="28" r="7"/><circle cx="165" cy="28" r="7"/><circle cx="210" cy="28" r="7"/><circle cx="255" cy="28" r="7"/><circle cx="52" cy="65" r="7"/><circle cx="97" cy="65" r="7"/><circle cx="142" cy="65" r="7"/><circle cx="187" cy="65" r="7"/><circle cx="232" cy="65" r="7"/><circle cx="30" cy="102" r="7"/><circle cx="75" cy="102" r="7"/><circle cx="120" cy="102" r="7"/><circle cx="165" cy="102" r="7"/><circle cx="210" cy="102" r="7"/><circle cx="255" cy="102" r="7"/><circle cx="52" cy="139" r="7"/><circle cx="97" cy="139" r="7"/><circle cx="142" cy="139" r="7"/><circle cx="187" cy="139" r="7"/><circle cx="232" cy="139" r="7"/><circle cx="30" cy="176" r="7"/><circle cx="75" cy="176" r="7"/><circle cx="120" cy="176" r="7"/><circle cx="165" cy="176" r="7"/><circle cx="210" cy="176" r="7"/><circle cx="255" cy="176" r="7"/><circle cx="52" cy="213" r="7"/><circle cx="97" cy="213" r="7"/><circle cx="142" cy="213" r="7"/><circle cx="187" cy="213" r="7"/><circle cx="232" cy="213" r="7"/></g></svg>
